<svg xmlns="http://www.w3.org/2000/svg" viewBox="0 0 64 64" role="img" aria-label="Plexigent butterfly">
	<defs>
		<radialGradient id="bg" cx="35%" cy="28%" r="80%">
			<stop offset="0" stop-color="#172d35"/>
			<stop offset="1" stop-color="#070b12"/>
		</radialGradient>
		<filter id="glow" x="-50%" y="-50%" width="200%" height="200%">
			<feGaussianBlur stdDeviation="1.2" result="blur"/>
			<feMerge><feMergeNode in="blur"/><feMergeNode in="SourceGraphic"/></feMerge>
		</filter>
	</defs>
	<rect width="64" height="64" rx="14" fill="url(#bg)"/>
	<g fill="none" stroke="#9ef7ec" stroke-linecap="round" stroke-width="1.4" opacity=".72">
		<path d="M33 28 20 12 10 18 15 31 30 34M33 28 26 9M31 36 17 40 12 53 27 48 34 39"/>
		<path d="M36 29 47 16 56 22 50 33 37 35M35 37 48 41 52 52 39 48 34 40" opacity=".52"/>
		<path d="M34 26 39 15M35 26 46 12"/>
	</g>
	<g fill="#dffffb" filter="url(#glow)">
		<circle cx="34" cy="28" r="2.8"/><circle cx="34" cy="36" r="2.5"/><circle cx="35" cy="43" r="2"/>
		<circle cx="20" cy="12" r="2.3"/><circle cx="10" cy="18" r="2"/><circle cx="15" cy="31" r="2.2"/><circle cx="26" cy="9" r="1.8"/><circle cx="30" cy="34" r="2"/>
		<circle cx="17" cy="40" r="2"/><circle cx="12" cy="53" r="1.9"/><circle cx="27" cy="48" r="2.2"/>
		<circle cx="47" cy="16" r="2"/><circle cx="56" cy="22" r="1.8"/><circle cx="50" cy="33" r="2"/><circle cx="48" cy="41" r="1.8"/><circle cx="52" cy="52" r="1.8"/><circle cx="39" cy="48" r="2"/>
		<circle cx="39" cy="15" r="1.5"/><circle cx="46" cy="12" r="1.5"/>
	</g>
</svg>
